<svg viewBox="0 0 324.22 119.89" xmlns="http://www.w3.org/2000/svg" xmlns:xlink="http://www.w3.org/1999/xlink"><defs><linearGradient id="a" x1="191.94" x2="191.94" y1="43.84" y2="10.37" gradientUnits="userSpaceOnUse"><stop stop-color="#233157" offset="0"/><stop stop-color="#21598d" offset="1"/></linearGradient><linearGradient id="y" x1="180.76" x2="180.76" y1="83.41" xlink:href="#a"/><linearGradient id="n" x1="164.72" x2="164.72" y1="96.79" y2="74.32" xlink:href="#a"/><linearGradient id="g" x1="188.32" x2="188.32" y1="105.74" y2="73.7" xlink:href="#a"/><linearGradient id="f" x1="215.81" x2="215.81" y1="97.42" y2="73.7" xlink:href="#a"/><linearGradient id="e" x1="243.22" x2="243.22" y1="96.8" y2="74.33" xlink:href="#a"/><linearGradient id="d" x1="269.73" x2="269.73" y1="97.42" y2="73.7" xlink:href="#a"/><linearGradient id="c" x1="298.1" x2="298.1" y1="83.41" y2="61.73" xlink:href="#a"/><linearGradient id="b" x1="295.44" x2="295.44" y1="68.91" y2="21.47" xlink:href="#a"/><linearGradient id="ai" x1="284.05" x2="284.05" y1="19.4" y2="2.91" xlink:href="#a"/><linearGradient id="ah" x1="91.5" x2="91.5" y1="119.32" y2="105.52" xlink:href="#a"/><linearGradient id="ag" x1="103.93" x2="103.93" y1="117.21" y2="108.33" xlink:href="#a"/><linearGradient id="af" x1="114.31" x2="114.31" y1="117.21" y2="108.33" xlink:href="#a"/><linearGradient id="ae" x1="124.13" x2="124.13" y1="117.11" y2="108.43" xlink:href="#a"/><linearGradient id="ad" x1="135.03" x2="135.03" y1="117.11" y2="108.43" xlink:href="#a"/><linearGradient id="ac" x1="145.7" x2="145.7" y1="117.11" y2="108.43" xlink:href="#a"/><linearGradient id="ab" x1="154.65" x2="154.65" y1="117.21" y2="108.33" xlink:href="#a"/><linearGradient id="aa" x1="163.58" x2="163.58" y1="117.11" y2="108.33" xlink:href="#a"/><linearGradient id="z" x1="175.82" x2="175.82" y1="117.11" y2="108.43" xlink:href="#a"/><linearGradient id="x" x1="184.58" x2="184.58" y1="117.11" y2="108.33" xlink:href="#a"/><linearGradient id="w" x1="192.64" x2="192.64" y1="119.89" y2="108.43" xlink:href="#a"/><linearGradient id="v" x1="201.81" x2="201.81" y1="117.11" y2="108.33" xlink:href="#a"/><linearGradient id="u" x1="210.43" x2="210.43" y1="117.11" y2="108.33" xlink:href="#a"/><linearGradient id="t" x1="218.36" x2="218.36" y1="117.11" y2="108.43" xlink:href="#a"/><linearGradient id="s" x1="226.52" x2="226.52" y1="119.16" y2="108.33" xlink:href="#a"/><linearGradient id="r" x1="236.42" x2="236.42" y1="117.11" y2="108.43" xlink:href="#a"/><linearGradient id="q" x1="241.69" x2="241.69" y1="117.11" y2="108.43" xlink:href="#a"/><linearGradient id="p" x1="251.02" x2="251.02" y1="117.11" y2="108.43" xlink:href="#a"/><linearGradient id="o" x1="260.25" x2="260.25" y1="117.21" y2="108.33" xlink:href="#a"/><linearGradient id="m" x1="274.52" x2="274.52" y1="117.11" y2="105.65" xlink:href="#a"/><linearGradient id="l" x1="284.76" x2="284.76" y1="117.21" y2="108.33" xlink:href="#a"/><linearGradient id="k" x1="293.82" x2="293.82" y1="117.11" y2="108.43" xlink:href="#a"/><linearGradient id="j" x1="300.97" x2="300.97" y1="117.11" y2="108.43" xlink:href="#a"/><linearGradient id="i" x1="308.98" x2="308.98" y1="117.21" y2="108.33" xlink:href="#a"/><linearGradient id="h" x1="318.12" x2="318.12" y1="117.21" y2="108.33" xlink:href="#a"/><style>.cls-1{fill:#f5d40e}</style></defs><g data-name="Слой 2"><g data-name="Слой 1"><path class="cls-1" d="M169.45.06A74 74 0 00146.08 5L61.2 2.8zM89.62 111.45l.99-.02-1.62 2.49-.96-.03-47.44-1.2z"/><path d="M183 43.84h13.44a3.79 3.79 0 003.72-3.12L202.52 27l1.48-8.57.3-1.73.32-1.88a3.76 3.76 0 00-3.71-4.42h-13.44a3.77 3.77 0 00-3.72 3.11l-.46 2.7-.5 2.79-1.28 7.48-.38 2.19-1.37 8.05-.3 1.73-.17 1a3.76 3.76 0 003.71 4.39z" fill="url(#a)"/><path d="M147 69.67c0-.24-.07-.48-.11-.73a9.15 9.15 0 00-1.06-2.69 8.9 8.9 0 00-7.29-4.49h-.65a22.1 22.1 0 00-2.58.26 13.11 13.11 0 00-6.59 3.78 11.84 11.84 0 00-2.2 3.11c-.1.18-.18.37-.26.55L126 70c-.12.36-.24.73-.35 1.11a7 7 0 00-.17.73 12.73 12.73 0 00-.16 3.57v.06a1 1 0 000 .18 8.69 8.69 0 001.39 3.9 7 7 0 00.53.69c.09.11.19.22.29.32s.2.21.31.31a7.89 7.89 0 00.7.57 8.13 8.13 0 00.78.52 10.14 10.14 0 005.17 1.44 11.76 11.76 0 004.24-.84c.47-.19.93-.4 1.39-.63a11.09 11.09 0 001.3-.8l.61-.45a12.22 12.22 0 001.15-1c.19-.18.36-.36.54-.56a13 13 0 002.1-3.12 11.67 11.67 0 001.18-6.33zM270 .08a1.83 1.83 0 00-.33 0 1.88 1.88 0 00-.33 0 13.38 13.38 0 00-2.53.23 13.46 13.46 0 00-3.62 1.13 13.84 13.84 0 00-5.37 4.95q-3.3 4.54-6.74 9.71c-2.31 3.44-7.42 10.54-7.52 10.71 0-.15-2.67-7.27-3.78-10.71-1-3.11-2-6.06-3-8.84-.11-.3-.22-.58-.32-.87a8.49 8.49 0 00-3.65-4.95A10.32 10.32 0 00229.53.3a12.91 12.91 0 00-2.45-.22 2.57 2.57 0 01-.64 0h-5.83l-1.18 6.72-.28 1.64-1.5 8.56-6.1 35a3.78 3.78 0 01-3.73 3.13h-40a3.79 3.79 0 01-3.82-4.46l.35-2.08.38-2.12 1.34-7.72.42-2.41 1.33-7.34.51-2.86 1.18-6.81.6-3.46 1.08-6.16.71-4.06 1-5.62h-1.15l-1.8.05h-.6A74.37 74.37 0 00146 5a79.19 79.19 0 00-11.67 5.65 85.37 85.37 0 00-6.42 4.16c-2.44 1.75-4.86 3.64-7.25 5.7l-.09.07c-1.6 1.39-3.15 2.8-4.62 4.25q-2.84 2.75-5.34 5.63a87.171 87.171 0 00-3.61 4.42 86.904 86.904 0 00-3.86 5.51c-1 1.48-1.84 3-2.68 4.49q-1.47 2.67-2.73 5.44c-.68 1.5-1.3 3-1.89 4.54 0 .11-.07.19-.1.29h-5.62A3.15 3.15 0 0087 57.7l-.46 2.64-.76 4.36-.14.83a2.88 2.88 0 002.84 3.37h36.23a.17.17 0 010-.05 5.29 5.29 0 01.3-.66 13.94 13.94 0 012.47-3.51 14.79 14.79 0 017.41-4.24 11.76 11.76 0 012-.22l.78-.06h.8a10.48 10.48 0 018.66 5.27 10.35 10.35 0 011.23 3.1l.06.18v.11a.52.52 0 010 .11h71.33a2.86 2.86 0 002.83-2.38l6.93-39.66c.55 1.39 3 12.47 4.1 17.35a2.88 2.88 0 002.81 2.24h7.91a2.88 2.88 0 002.54-1.48c2.51-4.32 9.62-16.68 10.72-18.16l-6.75 38.67a2.87 2.87 0 002.83 3.37h7.78a2.88 2.88 0 002.84-2.38L275.9.1zM156.4 15.49l-.73 4.16-1.07 6.11-.6 3.55-1.17 6.69-.55 3.1-1.23 7-.49 2.81-1.08 6.18h-39.67q1.14-2.65 2.52-5.2c.87-1.6 1.83-3.16 2.84-4.7 1.2-1.8 2.5-3.55 3.9-5.27s2.69-3.16 4.17-4.69c1.7-1.77 3.53-3.48 5.46-5.14l.19-.15a72 72 0 016.05-4.7 66.92 66.92 0 018.94-5.24 61.76 61.76 0 0112.3-4.47l.21-.05zm-9.53 53.45a9.15 9.15 0 00-1.06-2.69 8.9 8.9 0 00-7.29-4.49h-.65a22.1 22.1 0 00-2.58.26 13.11 13.11 0 00-6.59 3.78 11.84 11.84 0 00-2.2 3.11c-.1.18-.18.37-.26.55L126 70c-.12.36-.24.73-.35 1.11a7 7 0 00-.17.73 12.73 12.73 0 00-.16 3.57v.06a1 1 0 000 .18 8.69 8.69 0 001.39 3.9 7 7 0 00.53.69c.09.11.19.22.29.32s.2.21.31.31a7.89 7.89 0 00.7.57 8.13 8.13 0 00.78.52 10.14 10.14 0 005.17 1.44 11.76 11.76 0 004.24-.84c.47-.19.93-.4 1.39-.63a11.09 11.09 0 001.3-.8l.61-.45a12.22 12.22 0 001.15-1c.19-.18.36-.36.54-.56a13 13 0 002.1-3.12 11.67 11.67 0 001.18-6.33c0-.24-.09-.48-.13-.73zm.11.73c0-.24-.07-.48-.11-.73a9.15 9.15 0 00-1.06-2.69 8.9 8.9 0 00-7.29-4.49h-.65a22.1 22.1 0 00-2.58.26 13.11 13.11 0 00-6.59 3.78 11.84 11.84 0 00-2.2 3.11c-.1.18-.18.37-.26.55L126 70c-.12.36-.24.73-.35 1.11a7 7 0 00-.17.73 12.73 12.73 0 00-.16 3.57v.06a1 1 0 000 .18 8.69 8.69 0 001.39 3.9 7 7 0 00.53.69c.09.11.19.22.29.32s.2.21.31.31a7.89 7.89 0 00.7.57 8.13 8.13 0 00.78.52 10.14 10.14 0 005.17 1.44 11.76 11.76 0 004.24-.84c.47-.19.93-.4 1.39-.63a11.09 11.09 0 001.3-.8l.61-.45a12.22 12.22 0 001.15-1c.19-.18.36-.36.54-.56a13 13 0 002.1-3.12 11.67 11.67 0 001.18-6.33z" fill="url(#y)"/><path d="M160.09 88.94l-1.2 6.86-.18 1h5.06l.15-.87 1.24-7.11.44-2.52 1.27-7.3h9a5.56 5.56 0 00.44-.73l.1-.19a4.91 4.91 0 00.47-1.33v-.12c.27-1.55-.44-2.34-2.15-2.34h-21.18a8 8 0 00-.55 1 4.61 4.61 0 00-.36.89 4.8 4.8 0 00-.15.63c-.19 1.11.16 1.8 1.06 2.09a3.75 3.75 0 001.14.15h7.12l-1.24 7.14z" fill="url(#n)"/><path d="M200.37 90.33c.2-.34.38-.7.55-1.06a15 15 0 001.15-3.71 12.13 12.13 0 00-.06-4.74 9.06 9.06 0 00-1.83-3.76 9.32 9.32 0 00-3.31-2.46 11 11 0 00-4.54-.9 15.56 15.56 0 00-5.21.86 13.37 13.37 0 00-3.25 1.63c-.32.24-.64.48-1 .74l-.13.1a12.46 12.46 0 00-1.16 1.14 14.7 14.7 0 00-2 2.89 17.83 17.83 0 00-1.86 5.53l-.33 1.89-1.39 7.75-.44 2.52v.08l-1.21 6.91h5.11l1.23-7v-.08l.39-2.27.41-2.38a6.87 6.87 0 002.67 2.42.18.18 0 00.09 0 8.76 8.76 0 004.24.95 12.52 12.52 0 004.27-.73l.4-.14a14.09 14.09 0 007.12-6.18zm-3.57-4.81A9.77 9.77 0 01196 88c-.06.13-.12.26-.19.39a8.87 8.87 0 01-1.81 2.36 8.12 8.12 0 01-2.47 1.55 7.58 7.58 0 01-2.89.55 6.32 6.32 0 01-2.74-.55 4.84 4.84 0 01-1.9-1.55 5.82 5.82 0 01-1-2.32.17.17 0 010-.07 7.24 7.24 0 01-.12-1.63 8.55 8.55 0 01.12-1.21 9.52 9.52 0 011-2.93 8.7 8.7 0 011.83-2.27 8.54 8.54 0 012.45-1.47 7.38 7.38 0 011.61-.44 7.71 7.71 0 011.28-.1 6.23 6.23 0 012.7.56 5.31 5.31 0 011.93 1.52 5.37 5.37 0 011 2.28 8 8 0 010 2.85z" fill="url(#g)"/><path d="M219.73 82.85c-1-.07-2.07-.11-3.2-.11a24.34 24.34 0 00-5.1.47 11 11 0 00-3.58 1.41 6.82 6.82 0 00-2.24 2.38 9.51 9.51 0 00-1.12 3.22 8 8 0 000 2.71 4.13 4.13 0 001.34 2.33 8 8 0 003.17 1.56 21.19 21.19 0 005.6.6c1.17 0 2.29 0 3.38-.09s2.06-.12 2.94-.2 1.65-.15 2.3-.22 1.14-.14 1.45-.2l2.35-13.48a9.67 9.67 0 00-.1-4.43 5.91 5.91 0 00-1.93-3 8.52 8.52 0 00-3.45-1.63 19.31 19.31 0 00-4.72-.52 21 21 0 00-3.67.27 9.06 9.06 0 00-2.41.74 3.83 3.83 0 00-1.38 1.07 3.19 3.19 0 00-.55 1.23 2.22 2.22 0 00.21 1.52 4 4 0 00.59.86 9.88 9.88 0 012.21-1 12.66 12.66 0 014.19-.58 15.13 15.13 0 012.74.22 4.83 4.83 0 012 .81 3.16 3.16 0 011.13 1.61 5.54 5.54 0 01.06 2.6q-.71 0-2.21-.15zm.5 10.45c-.28.06-.83.15-1.65.25a26.38 26.38 0 01-3.3.16 14.82 14.82 0 01-3-.25 4.63 4.63 0 01-1.82-.71 2.12 2.12 0 01-.81-1.15 3.28 3.28 0 010-1.47 4 4 0 011.89-2.89 9.17 9.17 0 014.59-.92 27 27 0 013.66.18c.8.12 1.34.21 1.63.27z" fill="url(#f)"/><path d="M252.47 96.8l3.84-22c-.14-.06-.43-.16-.87-.29a5.1 5.1 0 00-1.46-.2 3.45 3.45 0 00-2.07.58 2.62 2.62 0 00-1 1.79l-1.11 6.36h-12.16l1.44-8.24c-.14-.06-.43-.16-.87-.29a5.15 5.15 0 00-1.46-.2 3.45 3.45 0 00-2.07.58 2.62 2.62 0 00-1 1.79l-3.51 20.1h5.1l1.6-9.18H249l-1.6 9.18z" fill="url(#e)"/><path d="M265.42 82.27a8.23 8.23 0 011.91-2.27 7.47 7.47 0 012.53-1.36 9.42 9.42 0 012.91-.45h.54a7.73 7.73 0 013.1.68 6.83 6.83 0 012.08 1.46 8.18 8.18 0 001.34-1.17 3.09 3.09 0 00.9-1.65 2.18 2.18 0 00-.2-1.34 2.86 2.86 0 00-1.17-1.17 8.24 8.24 0 00-2.35-.9 15.88 15.88 0 00-3.68-.36 15.58 15.58 0 00-5 .79 13.45 13.45 0 00-7.57 6.06 15 15 0 00-1.83 5.1 12 12 0 00.07 5.06 8.41 8.41 0 005.44 6 13 13 0 004.56.76 17.48 17.48 0 002.93-.22c.48-.08.94-.18 1.37-.29s.69-.17 1-.27c.71-.23 1.35-.47 1.91-.71a14.65 14.65 0 001.45-.75l-1.48-3.8a18.63 18.63 0 01-2 .92 6.82 6.82 0 01-.87.29 11.88 11.88 0 01-2.84.32 8.66 8.66 0 01-2.83-.44 5.25 5.25 0 01-2.14-1.31 4.84 4.84 0 01-1.22-2.28 8.46 8.46 0 010-3.37 9.4 9.4 0 011.14-3.33z" fill="url(#d)"/><path d="M308.92 69.67c.63 5.82-3.24 11-8.2 12.9a11.81 11.81 0 01-4.25.84 10.11 10.11 0 01-5.16-1.41 8 8 0 01-4-6.3 13.13 13.13 0 01-.09-1.51v-.72a12.15 12.15 0 01.16-1.38 10.88 10.88 0 01.31-1.31 14.05 14.05 0 01.72-1.84 13.23 13.23 0 018.79-6.9 20.1 20.1 0 012.59-.25h.65c3.9 0 7.54 3.33 8.34 7.18.07.19.11.44.14.7z" fill="url(#c)"/><path d="M324.19 65.36l-.33 1.88a2 2 0 01-2 1.67h-11.43c-.82-4.82-5.26-8.78-10-8.78h-1.57a11.38 11.38 0 00-2 .23 14.78 14.78 0 00-10.18 8.46h-18a2 2 0 01-2-2.36l7.58-43.41a2 2 0 012-1.67h18.21a2 2 0 011.42.58l27.57 27.62a2 2 0 01.56 1.78l-1.67 9.61a2 2 0 00.53 1.75l.77.8a2 2 0 01.54 1.84z" fill="url(#b)"/><path d="M275.92 19.4h16.26a.87.87 0 00.67-1.42L277.66 2.91l-2.59 15.47a.87.87 0 00.85 1.02z" fill="url(#ai)"/><path d="M97.64 116.32h-.19l-.5-2.2-.65-2.84-1-4.62c-.2-.82-.46-1.14-1-1.14s-.94.32-1.46 1.14l-3.14 4.79-1.7 2.44-1.59 2.43h-.26c-1.13 0-1.41.37-1.67 1.53l-.33 1.47h.89l.32-1.47c.12-.56.31-.74.87-.74h11c.44 0 .62.12.62.44a1.78 1.78 0 010 .3l-.33 1.47h.89l.32-1.47a3.2 3.2 0 000-.59c.09-.57-.3-.94-1.09-.94zm-10.22 0l1.57-2.4 1.62-2.49 3-4.57c.18-.28.33-.49.52-.49s.26.23.3.49l1 4.45.57 2.79.51 2.22z" fill="url(#ah)"/><path d="M104.87 108.33c-3.11 0-4.57 1.15-5.22 4.26a8.18 8.18 0 00-.22 1.72c0 2 1.08 2.9 3.56 2.9 3.11 0 4.56-1.18 5.24-4.29a8.4 8.4 0 00.19-1.69c0-1.96-1.06-2.9-3.55-2.9zm2.47 4.42c-.59 2.79-1.73 3.69-4.19 3.69-1.93 0-2.83-.56-2.83-2.15a7.57 7.57 0 01.21-1.54c.59-2.78 1.72-3.65 4.18-3.65 1.93 0 2.83.54 2.83 2.13a7.22 7.22 0 01-.2 1.52z" fill="url(#ag)"/><path d="M119.23 108.33a1.07 1.07 0 00-1 .59l-4.39 7c-.11.2-.18.29-.24.29s-.07-.09-.12-.29l-1.41-7a.66.66 0 00-.75-.59c-.54 0-.8.28-.93.9l-1.69 7.88h.85l1.62-7.61c0-.09 0-.12.1-.12s.07.05.08.15l1.41 7.06a.67.67 0 00.69.62 1 1 0 00.88-.62l4.42-7.06s.1-.15.15-.15 0 0 0 .05a.59.59 0 010 .11l-1.63 7.57h.86l1.68-7.88a1.71 1.71 0 000-.31c.09-.41-.13-.59-.58-.59z" fill="url(#af)"/><path d="M126.41 108.43h-4.21l-.16.77h4.21c.75 0 1 .36 1 .87a2.6 2.6 0 01-.05.39l-.31 1.46h-3.75c-1.7 0-2.5.61-2.9 2.41a5.12 5.12 0 00-.11 1c0 1.13.55 1.74 1.9 1.74h3.34c1.05 0 1.34-.38 1.5-1.15l1.15-5.35a3.76 3.76 0 00.08-.71c.01-.86-.51-1.43-1.69-1.43zM126 116a.47.47 0 01-.49.39H122c-.72 0-1-.39-1-1a4.38 4.38 0 01.12-.88c.23-1 .57-1.8 1.62-1.8h4z" fill="url(#ae)"/><path d="M140.54 108.43l-1.54 7.29c-.12.56-.33.62-.66.62h-3.76l1.68-7.91h-.85l-1.68 7.91H130c-.26 0-.43 0-.43-.34a1.7 1.7 0 010-.28l1.55-7.29h-.85l-1.55 7.3a1.93 1.93 0 00-.05.45.83.83 0 00.93.93h8.78c1.08 0 1.29-.54 1.47-1.38l1.56-7.3z" fill="url(#ad)"/><path fill="url(#ac)" d="M148.41 112.25h-5.21l.82-3.82h-.85l-1.85 8.68h.85l.87-4.09h5.21l-.87 4.09h.85l1.85-8.68h-.85z"/><path d="M158.43 108.33a1.27 1.27 0 00-1 .53l-6 7.12c-.11.15-.18.21-.22.21s-.07 0-.07-.08a.7.7 0 010-.13l1.6-7.55H152l-1.67 7.88a1.12 1.12 0 000 .31c0 .38.24.59.65.59s.66-.18 1-.62l5.91-7c.17-.18.22-.2.23-.2s.05 0 .05.07a.72.72 0 010 .13l-1.61 7.55h.85l1.66-7.78a2.21 2.21 0 00.05-.36.59.59 0 00-.69-.67z" fill="url(#ab)"/><path d="M164.46 108.33c-3.09 0-4 1.41-4.68 4.34a9.08 9.08 0 00-.23 1.9c0 1.51.59 2.54 2.33 2.54h4.25l.17-.77H162c-1.24 0-1.61-.79-1.61-1.77a7.19 7.19 0 01.2-1.5H166c1 0 1.33-.27 1.54-1.27a4.27 4.27 0 00.12-1c-.05-1.73-1.36-2.47-3.2-2.47zm2.15 3.46v.11a.51.51 0 01-.47.4h-5.34c.52-2.49 1.58-3.2 3.52-3.2 1.47 0 2.4.4 2.4 1.74a4.33 4.33 0 01-.11.95z" fill="url(#aa)"/><path d="M179.09 108.43h-4.49c-1.08 0-1.29.54-1.47 1.38l-1.56 7.3h.86l1.55-7.29c.12-.55.33-.62.66-.62h4.12c.27 0 .43 0 .43.34v.28l-1.56 7.29h.85l1.56-7.3a3 3 0 00.05-.48c-.03-.52-.29-.9-1-.9z" fill="url(#z)"/><path d="M187 113.07c1 0 1.33-.27 1.54-1.27a3.76 3.76 0 00.12-1c0-1.77-1.31-2.51-3.15-2.51-3.09 0-4 1.41-4.68 4.34a9.08 9.08 0 00-.23 1.9c0 1.51.59 2.54 2.33 2.54h4.25l.17-.77H183c-1.24 0-1.6-.79-1.6-1.77a7.17 7.17 0 01.19-1.5zm-1.63-4c1.47 0 2.4.4 2.4 1.74a4.33 4.33 0 01-.11 1v.11a.51.51 0 01-.47.4h-5.39c.52-2.51 1.58-3.22 3.52-3.22z" fill="url(#x)"/><path d="M194.21 108.43h-2.31a1.41 1.41 0 00-1.54 1.25l-2.16 10.21h.8l.59-2.78h2.73c2.95 0 3.9-1.41 4.49-4.19a8.87 8.87 0 00.23-1.85c.04-1.67-.73-2.64-2.83-2.64zm1.75 4.32c-.45 2.13-1.14 3.59-3.43 3.59h-2.74l1.39-6.55c.1-.49.31-.59.66-.59h2.21c1.62 0 2.14.7 2.14 1.88a7.74 7.74 0 01-.19 1.67z" fill="url(#w)"/><path d="M202.7 108.33c-3.1 0-4 1.41-4.69 4.34a9.8 9.8 0 00-.23 1.9c0 1.51.59 2.54 2.33 2.54h4.26l.16-.77h-4.26c-1.24 0-1.6-.79-1.6-1.77a7.17 7.17 0 01.19-1.5h5.33c1 0 1.32-.27 1.54-1.27a4.22 4.22 0 00.11-1c0-1.73-1.31-2.47-3.14-2.47zm2.14 3.46v.11a.52.52 0 01-.48.4H199c.52-2.49 1.59-3.2 3.52-3.2 1.47 0 2.41.4 2.41 1.74a4.4 4.4 0 01-.09.95z" fill="url(#v)"/><path d="M211.31 108.33c-3.09 0-4 1.41-4.68 4.34a9.08 9.08 0 00-.23 1.9c0 1.51.59 2.54 2.33 2.54H213l.17-.77h-4.26c-1.25 0-1.61-.79-1.61-1.77a7.19 7.19 0 01.2-1.5h5.32c1 0 1.33-.27 1.54-1.27a4.27 4.27 0 00.12-1c-.02-1.73-1.33-2.47-3.17-2.47zm2.15 3.46v.11a.51.51 0 01-.47.4h-5.33c.53-2.49 1.59-3.2 3.53-3.2 1.47 0 2.4.4 2.4 1.74a4.33 4.33 0 01-.13.95z" fill="url(#u)"/><path d="M221.58 113.88c0-.75-.29-1.14-.85-1.26v-.06c1-.08 1.28-.58 1.52-1.74a3.79 3.79 0 00.09-.85c0-1-.46-1.54-1.61-1.54h-4.34l-.16.77h4.19c.74 0 1 .3 1 .87a2.75 2.75 0 01-.08.59c-.23 1.08-.69 1.54-1.57 1.54h-4.13l-.16.77h4.14c.77 0 1 .37 1 1a3.33 3.33 0 01-.1.65c-.31 1.41-.75 1.72-1.82 1.72h-4.24l-.16.77h4.73c1.67 0 2.13-1.15 2.37-2.33a3.35 3.35 0 00.18-.9z" fill="url(#t)"/><path d="M231.08 116.34h-.26l-1.42-7.25a.82.82 0 00-.82-.76 1.24 1.24 0 00-1.05.76l-4.5 7.25h-.3c-.9 0-1.08.38-1.29 1.38l-.31 1.44h.87l.29-1.43c.1-.49.25-.62.49-.62h7.87c.24 0 .39 0 .39.33a1.06 1.06 0 010 .29l-.32 1.43h.86l.31-1.44a2.84 2.84 0 00.08-.61c-.05-.43-.26-.77-.89-.77zm-7.1 0l4.25-6.89c.05-.09.17-.25.25-.25s.13.16.15.25l1.34 6.89z" fill="url(#s)"/><path d="M238.34 112.15h-3.85l.79-3.72h-.85l-1.56 7.3a2.68 2.68 0 00-.05.45.83.83 0 00.94.93h3.68c1.48 0 2.11-.7 2.46-2.34a4.37 4.37 0 00.11-1 1.47 1.47 0 00-1.67-1.62zm.67 2.45c-.21 1-.55 1.74-1.54 1.74h-3.35c-.27 0-.43 0-.43-.34v-.28l.61-2.8h3.88c.69 0 .92.34.92.88a3.61 3.61 0 01-.1.8z" fill="url(#r)"/><path fill="url(#q)" d="M240.34 117.11h.85l1.85-8.68h-.85z"/><path d="M254.3 108.43h-4.49c-1.08 0-1.3.54-1.48 1.38l-1.55 7.3h.85l1.56-7.29c.11-.55.32-.62.65-.62H254c.26 0 .42 0 .42.34a1.49 1.49 0 010 .28l-1.55 7.29h.85l1.55-7.3a2.17 2.17 0 000-.48c-.01-.52-.27-.9-.97-.9z" fill="url(#p)"/><path d="M261.19 108.33c-3.11 0-4.57 1.15-5.22 4.26a8.82 8.82 0 00-.21 1.72c0 2 1.08 2.9 3.55 2.9 3.11 0 4.57-1.18 5.24-4.29a8.47 8.47 0 00.2-1.69c0-1.96-1.07-2.9-3.56-2.9zm2.48 4.42c-.59 2.79-1.74 3.69-4.2 3.69-1.93 0-2.83-.56-2.83-2.15a7.57 7.57 0 01.21-1.54c.59-2.78 1.72-3.65 4.18-3.65 1.93 0 2.83.54 2.83 2.13a7.13 7.13 0 01-.19 1.52z" fill="url(#o)"/><path d="M277.64 105.65h-4.82a1.47 1.47 0 00-1.7 1.36l-2.12 10.1h.88l1-4.68h5.34c2.34 0 3.14-.71 3.68-3.26a6.31 6.31 0 00.18-1.39c-.02-1.43-.75-2.13-2.44-2.13zM279 109c-.37 1.74-.81 2.64-2.57 2.64H271l1-4.5c.08-.4.15-.71.8-.71h4.72c1.23 0 1.63.49 1.63 1.38A5.84 5.84 0 01279 109z" fill="url(#m)"/><path d="M285.7 108.33c-3.11 0-4.57 1.15-5.22 4.26a8.18 8.18 0 00-.22 1.72c0 2 1.08 2.9 3.56 2.9 3.11 0 4.56-1.18 5.24-4.29a8.4 8.4 0 00.19-1.69c0-1.96-1.06-2.9-3.55-2.9zm2.47 4.42c-.59 2.79-1.73 3.69-4.19 3.69-1.93 0-2.83-.56-2.83-2.15a7.57 7.57 0 01.21-1.54c.59-2.78 1.72-3.65 4.18-3.65 1.93 0 2.83.54 2.83 2.13a7.22 7.22 0 01-.2 1.52z" fill="url(#l)"/><path d="M290.84 114.51a9.16 9.16 0 01.23-1.74c.48-2.29 1.25-3.57 3.54-3.57h2.91l.17-.77h-3.08c-2.95 0-3.86 1.56-4.42 4.18a9.23 9.23 0 00-.23 1.9c0 1.65.75 2.6 3 2.6H296l.17-.77h-3.11c-1.63 0-2.22-.59-2.22-1.83z" fill="url(#k)"/><path d="M298 114.51a8.42 8.42 0 01.23-1.74c.47-2.29 1.24-3.57 3.53-3.57h2.92l.16-.77h-3.08c-2.95 0-3.86 1.56-4.42 4.18a9.23 9.23 0 00-.23 1.9c0 1.65.76 2.6 3 2.6h3.11l.16-.77h-3.11c-1.69 0-2.27-.59-2.27-1.83z" fill="url(#j)"/><path d="M312.76 108.33a1.24 1.24 0 00-1 .53l-6 7.12c-.11.15-.18.21-.23.21s-.06 0-.06-.08v-.13l1.61-7.55h-.85l-1.68 7.88a1.12 1.12 0 000 .31c0 .38.25.59.66.59s.65-.18 1-.62l5.91-7c.16-.18.21-.2.23-.2s.05 0 .05.07a.37.37 0 010 .13l-1.6 7.55h.85l1.65-7.78a1.47 1.47 0 00.05-.36.59.59 0 00-.59-.67z" fill="url(#i)"/><path d="M321.9 108.33a1.24 1.24 0 00-1 .53l-6 7.12c-.11.15-.18.21-.23.21s-.06 0-.06-.08v-.13l1.61-7.55h-.85l-1.67 7.88a.85.85 0 000 .31c0 .38.25.59.66.59s.65-.18 1-.62l5.91-7c.16-.18.21-.2.23-.2s0 0 0 .07a.37.37 0 010 .13l-1.6 7.55h.85l1.65-7.78a1.47 1.47 0 000-.36.58.58 0 00-.5-.67z" fill="url(#h)"/><path class="cls-1" d="M175.6 98.75l-.02.08-1.21 6.91-137.61-3.48zm-15.51-9.81l-1.2 6.86-134.97-3.42zm-18.63-7.8a11.09 11.09 0 01-1.3.8 14.65 14.65 0 001.3-.8zm1.77-1.46a12.22 12.22 0 01-1.15 1c.4-.31.78-.68 1.15-1z"/><path class="cls-1" d="M161.81 79l-1.24 7.13-147.69-3.7 112-2.83a9.26 9.26 0 00.51.86 9.66 9.66 0 003.13 2.89 11.77 11.77 0 006 1.67 13.17 13.17 0 004.81-1 14.81 14.81 0 005.67-3.81 13.91 13.91 0 00.92-1.14l7.68-.19a3.8 3.8 0 001.14.15zm-38.07-3.57l-116.88-3 117.64-3a13 13 0 00-.76 6zM0 62.53l86.57-2.19-.76 4.35zm97.68-12.25q-1 2.23-1.89 4.55L6.86 52.57zm5.41-9.93c-1 1.48-1.84 3-2.68 4.49l-87.54-2.22zm7.47-9.93a87.171 87.171 0 00-3.61 4.42l-85.64-2.16zm9.96-9.88q-2.4 2.09-4.62 4.24l-81.55-2.06zm-71.74-7.77l85.5-2.16c-2.17 1.27-4.3 2.66-6.41 4.16z"/><path d="M156.41 15.43v.07h-.2z" fill="#ffed00"/><path class="cls-1" d="M278.41 25.38l15 .09a1 1 0 01.76.32l11.41 11.66a1.07 1.07 0 01-.76 1.81h-28.21a1.07 1.07 0 01-1.06-1.26l1.8-11.74a1.07 1.07 0 011.06-.88zm43.12 30.01h-1.25a.56.56 0 01-.56-.56l.65-3.49c.06-.37.25-.56.56-.56h1.25a.56.56 0 01.56.56l-.65 3.49a.56.56 0 01-.56.56z"/></g></g></svg>