<svg width="24" height="14" fill="none" xmlns="http://www.w3.org/2000/svg"><path d="M22.847.942c.16-.543 0-.942-.772-.942h-2.557c-.65 0-.95.343-1.11.725 0 0-1.303 3.173-3.143 5.23-.595.594-.868.785-1.194.785-.16 0-.408-.19-.408-.733V.942c0-.651-.182-.942-.72-.942h-4.02c-.407 0-.65.304-.65.586 0 .616.92.76 1.015 2.496v3.767c0 .825-.147.977-.473.977-.868 0-2.977-3.186-4.227-6.832C4.336.286 4.088 0 3.433 0H.877C.147 0 0 .343 0 .725c0 .677.868 4.04 4.04 8.485 2.115 3.034 5.092 4.679 7.8 4.679 1.628 0 1.828-.365 1.828-.994 0-2.9-.148-3.173.668-3.173.377 0 1.029.191 2.548 1.654 1.736 1.736 2.022 2.513 2.994 2.513h2.557c.73 0 1.098-.365.885-1.085-.486-1.515-3.771-4.631-3.919-4.84-.378-.486-.27-.703 0-1.137.004-.004 3.125-4.396 3.446-5.885z" fill="#3A3A3A"/></svg>